<svg version="1.1" id="Layer_1" xmlns="http://www.w3.org/2000/svg" xmlns:xlink="http://www.w3.org/1999/xlink" x="0px" y="0px"
	 width="100%" viewBox="0 0 1024 1024" enable-background="new 0 0 1024 1024" xml:space="preserve">
<path fill="#000000" opacity="1.000000" stroke="none" 
	d="
M390.453644,350.538086 
	C354.287231,367.744995 330.905029,395.231995 321.019958,433.777527 
	C317.687561,446.771881 316.558960,460.014954 320.502441,473.156860 
	C323.019470,481.545105 327.813782,488.459473 335.200714,493.347809 
	C338.977264,495.846954 341.287598,499.280182 340.972046,503.720764 
	C340.608765,508.833527 337.362000,512.144836 332.627563,513.975220 
	C328.466888,515.583801 324.186584,515.936035 319.889618,514.767090 
	C298.480225,508.942902 286.768219,493.933105 281.803406,473.245453 
	C276.477875,451.054718 279.375671,429.325165 289.541077,409.171692 
	C311.660126,365.319397 345.309326,334.218903 392.841034,319.410309 
	C406.360077,315.198364 420.366577,313.745636 434.233521,316.264252 
	C458.027283,320.585846 470.981995,336.626434 476.210907,359.173920 
	C481.247986,380.894287 478.096069,402.495178 472.823151,423.767792 
	C461.979401,467.514526 447.237488,510.138245 435.120331,553.523987 
	C427.745026,579.931274 420.383514,606.338928 415.813568,633.394409 
	C413.772552,645.477783 411.966461,657.703369 414.280090,670.055603 
	C414.869598,673.202942 415.704376,676.210999 417.245758,678.992737 
	C420.456360,684.787109 424.011017,686.259705 430.446716,684.693848 
	C442.106171,681.857178 450.917389,674.468384 459.134552,666.364441 
	C485.110199,640.746643 506.880310,611.709717 527.183655,581.539917 
	C553.079346,543.060120 576.542480,503.183380 595.118774,460.593109 
	C602.837463,442.896210 609.624512,424.884338 613.169861,405.757812 
	C615.341492,394.042419 615.997375,382.194122 610.983398,371.482117 
	C604.767456,358.201965 608.908447,347.644867 616.551575,337.200226 
	C623.398682,327.843414 631.962219,320.697876 643.107056,316.894440 
	C654.348694,313.057953 665.351196,317.200012 671.457764,327.416199 
	C677.686523,337.836792 677.404419,349.263550 675.776428,360.423004 
	C669.845215,401.080719 652.601440,437.697876 633.383423,473.358978 
	C602.320862,530.998779 565.605835,584.943115 524.071045,635.537048 
	C504.714111,659.115906 484.314972,681.811646 459.524628,700.012024 
	C447.270294,709.008789 433.959595,715.568787 418.545990,717.014404 
	C401.390442,718.623535 382.809845,712.051636 372.239471,692.934814 
	C365.906616,681.481689 363.196747,669.097473 362.644531,656.129822 
	C361.197174,622.141418 368.685791,589.441772 377.058716,556.897034 
	C388.583771,512.100464 404.058624,468.513641 417.915710,424.431061 
	C423.193451,407.641357 428.766998,390.919739 431.155975,373.368439 
	C432.041443,366.862885 432.036926,360.412476 430.295258,354.074463 
	C427.839478,345.137573 420.283813,341.372528 409.560760,343.712372 
	C403.035553,345.136261 396.845367,347.580719 390.453644,350.538086 
z"/>
</svg>